<?xml version="1.0" standalone="no"?>
<!DOCTYPE svg PUBLIC "-//W3C//DTD SVG 20010904//EN"
 "http://www.w3.org/TR/2001/REC-SVG-20010904/DTD/svg10.dtd">
<svg version="1.0" xmlns="http://www.w3.org/2000/svg"
 width="140.000000pt" height="140.000000pt" viewBox="0 0 140.000000 140.000000"
 preserveAspectRatio="xMidYMid meet">
<metadata>
Created by potrace 1.14, written by Peter Selinger 2001-2017
</metadata>
<g transform="translate(0.000000,140.000000) scale(0.100000,-0.100000)"
fill="#000000" stroke="none">
<path d="M8 1380 c-7 -24 -3 -38 8 -28 3 4 4 17 2 30 l-3 23 -7 -25z"/>
<path d="M50 1371 c0 -21 6 -30 21 -34 21 -6 21 -34 0 -29 -6 1 -11 -2 -11 -8
0 -5 7 -10 15 -10 8 0 15 -9 15 -21 0 -11 4 -29 10 -39 7 -13 6 -19 -5 -24 -8
-3 -15 -15 -15 -27 0 -17 -5 -20 -21 -16 -15 4 -19 2 -15 -9 4 -11 0 -13 -19
-8 -31 8 -32 -7 -7 -57 18 -35 18 -35 50 -22 18 8 37 11 41 8 5 -2 14 2 21 10
7 8 20 15 29 15 24 0 91 -72 91 -97 0 -19 -4 -21 -35 -16 -20 3 -41 1 -48 -6
-8 -6 -48 -11 -90 -12 l-77 -1 0 -384 c0 -383 0 -385 20 -374 11 6 18 16 14
21 -3 6 3 13 15 16 11 3 18 9 15 15 -8 13 22 55 46 63 13 4 20 15 20 31 0 25
40 74 60 74 5 0 10 6 10 13 0 6 12 24 28 38 15 14 32 37 38 50 40 83 73 169
78 202 9 52 61 102 116 111 23 3 40 10 38 14 -2 4 -12 24 -21 44 -11 25 -22
36 -31 32 -11 -4 -13 0 -9 15 4 17 1 21 -20 21 -14 0 -29 5 -32 10 -4 6 10 10
34 10 23 0 41 5 41 10 0 6 3 9 8 9 4 -1 14 -1 22 0 21 2 -17 31 -41 31 -10 0
-19 10 -21 25 -4 19 -1 25 13 25 11 0 19 -5 19 -10 0 -6 8 -5 20 2 11 7 20 16
20 21 0 4 -4 5 -10 2 -5 -3 -10 -1 -10 5 0 6 -4 8 -10 5 -5 -3 -10 -2 -10 4 0
5 8 12 18 14 9 3 3 5 -13 6 -37 1 -55 17 -55 49 0 13 -4 20 -10 17 -6 -4 -5 5
2 19 6 14 17 26 24 26 8 0 11 6 7 16 -5 14 -8 14 -22 -5 -19 -24 -31 -19 -31
14 0 31 9 36 36 18 22 -14 25 -14 44 8 10 13 19 27 20 32 0 4 6 7 14 7 8 0 16
7 20 15 3 8 12 15 19 15 8 0 14 7 14 15 0 13 -29 15 -202 15 l-201 0 1 -22 c0
-13 -4 -23 -10 -23 -5 0 -10 10 -10 23 1 26 -20 30 -30 5 -6 -17 -7 -17 -19 0
-19 24 -26 21 -26 -12z m192 -51 c3 -20 0 -30 -9 -30 -8 0 -13 12 -13 30 0 17
4 30 9 30 5 0 11 -13 13 -30z m-98 1 c3 -4 -6 -6 -19 -3 -14 2 -25 6 -25 8 0
8 39 4 44 -5z m149 -55 c9 1 17 -3 17 -8 0 -10 -50 -2 -85 14 -16 7 -14 7 8 3
24 -5 27 -2 28 22 l1 28 7 -30 c4 -20 12 -30 24 -29z m71 19 c-3 -7 -1 -23 6
-34 6 -12 7 -21 3 -21 -5 0 -14 13 -21 29 -9 19 -18 28 -28 24 -8 -3 -14 0
-14 6 0 6 7 11 15 11 8 0 15 5 15 11 0 8 4 8 14 -1 8 -6 12 -18 10 -25z m-17
-41 c-3 -3 -12 -4 -19 -1 -8 3 -5 6 6 6 11 1 17 -2 13 -5z m-116 -39 c0 -11 3
-14 6 -7 4 10 8 10 19 1 8 -6 25 -9 38 -7 15 3 27 0 30 -8 3 -8 12 -14 20 -14
9 0 12 -7 9 -19 -3 -12 -11 -17 -19 -14 -8 3 -14 -1 -14 -8 0 -9 -3 -10 -8 -4
-4 6 -13 10 -19 11 -7 1 -20 2 -28 3 -8 0 -15 8 -15 16 0 8 -9 15 -19 15 -11
0 -26 -7 -35 -15 -21 -21 -26 -19 -26 14 0 45 10 61 36 59 16 -2 24 -9 25 -23z
m117 -139 c29 -26 28 -31 -8 -33 -17 -1 -30 2 -30 7 0 6 -10 10 -21 10 -19 0
-20 2 -8 17 8 9 9 14 2 10 -6 -4 -19 -4 -28 -1 -14 6 -13 8 7 18 25 13 45 7
86 -28z"/>
<path d="M600 1390 c-21 -7 -19 -8 18 -9 23 -1 42 4 42 9 0 12 -24 12 -60 0z"/>
<path d="M1330 1393 c0 -5 16 -23 35 -42 41 -39 50 -20 10 23 -23 25 -45 34
-45 19z"/>
<path d="M560 1356 c0 -9 5 -16 10 -16 6 0 10 5 10 10 0 6 5 10 10 10 18 0 10
-15 -21 -36 l-30 -22 30 -13 c37 -17 20 -30 -22 -18 -17 5 -33 5 -36 0 -4 -4
-16 -11 -28 -15 -13 -4 -23 -12 -23 -17 0 -5 10 -7 23 -5 65 13 87 14 93 5 4
-6 1 -15 -6 -19 -8 -5 -7 -9 5 -14 23 -9 37 2 30 24 -3 10 -1 21 4 25 7 4 8
-1 4 -11 -4 -12 -3 -15 5 -10 7 4 12 1 12 -7 0 -8 7 -17 15 -21 8 -3 15 0 15
7 0 9 3 8 9 -1 7 -11 9 -11 14 1 3 8 1 19 -5 25 -6 6 -6 12 1 17 7 3 20 -4 31
-17 l19 -23 -5 28 c-3 21 -1 28 8 25 15 -5 34 -89 25 -112 -11 -27 -27 -18
-27 16 0 40 -6 34 -14 -14 -6 -40 -7 -39 49 -42 17 0 33 -5 37 -11 4 -5 8 2 8
17 0 15 -4 30 -10 33 -6 3 -7 -1 -4 -9 3 -9 1 -16 -6 -16 -6 0 -10 8 -8 17 2
11 12 18 28 18 15 0 24 -5 23 -12 -2 -7 2 -13 7 -13 6 0 10 7 10 15 0 8 -5 15
-10 15 -12 0 -10 59 2 66 13 9 9 24 -7 24 -8 0 -15 -4 -15 -10 0 -5 -5 -10
-11 -10 -5 0 -7 6 -3 13 6 9 5 9 -7 0 -23 -18 -61 26 -46 52 8 15 7 17 -9 11
-17 -7 -17 -6 1 14 25 28 16 33 -43 22 -36 -6 -50 -6 -49 2 1 6 -18 12 -45 14
-38 2 -48 0 -48 -12z"/>
<path d="M525 1330 c-3 -5 -2 -10 4 -10 5 0 13 5 16 10 3 6 2 10 -4 10 -5 0
-13 -4 -16 -10z"/>
<path d="M1115 1330 c11 -5 27 -9 35 -9 13 -1 13 0 0 9 -8 5 -24 9 -35 9 l-20
0 20 -9z"/>
<path d="M1 1293 c0 -21 4 -47 9 -58 7 -19 8 -18 15 6 9 36 3 82 -12 87 -9 2
-13 -8 -12 -35z"/>
<path d="M1269 1309 c-11 -6 -11 -11 -1 -21 10 -10 15 -9 28 4 13 13 13 16 1
21 -7 3 -20 1 -28 -4z"/>
<path d="M1185 1298 c-22 -5 -60 -11 -85 -14 -95 -11 -90 -7 -90 -82 0 -46 3
-62 10 -52 5 8 15 15 22 16 40 3 40 4 34 38 -6 31 -4 35 16 38 34 5 69 -3 62
-14 -4 -6 3 -5 14 1 36 19 45 14 39 -24 -3 -19 -2 -35 2 -35 8 0 26 130 19
134 -2 1 -21 -1 -43 -6z"/>
<path d="M890 1231 c0 -21 -3 -53 -6 -70 -6 -28 -4 -31 20 -31 35 0 33 -19 -4
-33 -37 -14 -44 -53 -7 -44 12 4 28 2 36 -2 12 -8 11 -15 -3 -50 -20 -51 -20
-51 3 -51 20 0 31 26 31 78 0 17 4 32 9 32 5 0 12 26 16 58 3 31 8 69 10 83 3
22 -2 29 -41 47 -24 12 -49 22 -54 22 -6 0 -10 -17 -10 -39z"/>
<path d="M850 1196 c0 -9 5 -16 10 -16 6 0 10 4 10 9 0 6 -4 13 -10 16 -5 3
-10 -1 -10 -9z"/>
<path d="M1380 1190 c0 -11 5 -20 10 -20 6 0 10 9 10 20 0 11 -4 20 -10 20 -5
0 -10 -9 -10 -20z"/>
<path d="M520 1193 c0 -7 -9 -13 -20 -13 -13 0 -17 -5 -14 -14 6 -17 62 -19
82 -3 6 5 12 16 12 23 0 12 -4 12 -20 2 -17 -11 -22 -10 -30 2 -6 10 -10 11
-10 3z"/>
<path d="M681 1161 c-6 -11 -11 -24 -11 -30 0 -20 17 -11 28 14 14 29 -2 44
-17 16z"/>
<path d="M1240 1075 c0 -46 3 -55 18 -55 9 0 36 -11 59 -24 23 -13 44 -21 47
-18 3 3 6 26 6 52 l0 47 -59 27 c-32 14 -61 26 -65 26 -3 0 -6 -25 -6 -55z"/>
<path d="M755 1087 c-4 -10 -3 -23 4 -30 16 -16 26 0 14 25 -10 21 -11 22 -18
5z"/>
<path d="M805 1046 c0 -29 2 -32 18 -22 27 17 16 56 -16 56 -1 0 -2 -15 -2
-34z"/>
<path d="M1055 1052 c-11 -2 -22 -8 -25 -12 -9 -14 2 -110 12 -110 5 0 9 15 8
33 -3 53 -1 56 35 63 19 3 35 10 35 14 0 10 -39 17 -65 12z"/>
<path d="M537 1033 c-16 -15 -4 -23 36 -23 59 0 79 15 30 23 -49 9 -58 9 -66
0z"/>
<path d="M1386 968 c-3 -13 -1 -27 4 -32 7 -7 10 1 10 22 0 37 -5 41 -14 10z"/>
<path d="M1171 942 l-1 -32 -145 4 c-130 4 -164 -1 -136 -18 5 -4 11 -1 13 5
2 7 21 6 62 -4 66 -18 76 -24 56 -37 -12 -7 -11 -10 5 -15 11 -4 31 -11 45
-15 14 -5 41 -12 60 -15 54 -10 100 -28 101 -40 1 -5 5 6 9 25 5 19 6 39 2 45
-13 20 -10 35 6 36 10 0 -1 6 -23 13 -34 10 -41 16 -46 46 l-6 35 -2 -33z
m-91 -71 c3 -1 -2 -5 -10 -10 -15 -10 -30 -6 -30 9 0 4 8 7 18 5 9 -2 19 -4
22 -4z"/>
<path d="M1090 946 c0 -9 5 -16 10 -16 6 0 10 4 10 9 0 6 -4 13 -10 16 -5 3
-10 -1 -10 -9z"/>
<path d="M840 910 c0 -11 4 -20 9 -20 11 0 22 26 14 34 -12 12 -23 5 -23 -14z"/>
<path d="M1362 914 c-11 -12 -10 -15 2 -20 24 -9 36 -1 23 17 -10 14 -14 14
-25 3z"/>
<path d="M540 890 c-8 -5 -12 -11 -10 -14 3 -2 14 2 24 10 22 15 10 19 -14 4z"/>
<path d="M921 847 c17 -32 19 -33 19 -10 0 12 -7 23 -15 27 -13 5 -14 2 -4
-17z"/>
<path d="M553 853 c9 -2 25 -2 35 0 9 3 1 5 -18 5 -19 0 -27 -2 -17 -5z"/>
<path d="M721 811 c-24 -16 -60 -32 -79 -36 -20 -4 -42 -14 -50 -23 -7 -9 -10
-11 -6 -3 4 9 0 19 -11 27 -16 12 -26 6 -94 -55 -42 -38 -102 -94 -133 -124
l-58 -55 0 -64 c0 -56 4 -71 31 -112 29 -43 75 -84 83 -75 20 22 35 73 30 98
-4 17 -9 31 -13 31 -18 -1 -31 -20 -39 -55 l-9 -40 -11 27 c-21 51 11 238 36
213 4 -4 12 -34 17 -68 9 -58 12 -62 35 -59 14 2 35 13 48 25 21 20 22 22 5
28 -10 4 -12 8 -5 8 7 1 30 13 52 27 33 22 41 34 51 81 9 39 21 61 43 79 25
22 28 29 18 44 -10 16 -6 22 31 43 36 21 88 67 76 67 -2 0 -24 -13 -48 -29z
m-154 -118 c0 -10 -5 -24 -11 -32 -9 -12 -8 -13 4 -6 8 4 5 -2 -8 -14 -27 -26
-74 -116 -65 -125 4 -3 -6 -6 -20 -6 -36 0 -36 34 -2 84 14 20 25 43 25 51 0
10 64 65 76 65 0 0 1 -8 1 -17z m-10 -90 c0 -16 -2 -22 -4 -15 -4 10 -8 10
-21 0 -11 -9 -10 -5 3 14 11 15 21 28 21 28 1 0 1 -12 1 -27z m-8 -59 c-8 -10
-15 -11 -24 -4 -6 5 -16 6 -21 2 -4 -4 -3 0 4 9 8 10 21 15 33 12 15 -4 17 -8
8 -19z m-89 -68 c0 -3 -4 -8 -10 -11 -5 -3 -10 -1 -10 4 0 6 5 11 10 11 6 0
10 -2 10 -4z"/>
<path d="M966 823 c-6 -14 -5 -15 5 -6 7 7 10 15 7 18 -3 3 -9 -2 -12 -12z"/>
<path d="M875 717 c-10 -8 -15 -19 -11 -25 4 -6 -31 -43 -84 -88 -49 -42 -90
-79 -90 -81 0 -2 19 10 43 27 42 30 175 160 150 146 -19 -11 -15 5 5 20 23 18
11 18 -13 1z"/>
<path d="M995 572 c-62 -113 -148 -220 -202 -253 -40 -25 -42 -36 -8 -45 14
-3 30 -15 36 -25 5 -11 15 -16 21 -13 7 4 8 3 4 -4 -4 -7 -2 -12 3 -12 21 0
11 -29 -17 -48 -19 -14 -41 -19 -76 -18 -47 2 -48 1 -21 -10 19 -7 23 -13 14
-16 -8 -3 24 -4 71 -2 105 4 120 0 112 -28 -4 -17 -2 -20 11 -15 9 3 19 1 23
-5 5 -8 10 -6 18 4 21 28 56 40 84 30 15 -6 43 -13 62 -15 19 -3 44 -8 55 -12
15 -5 16 -4 5 3 -21 14 -136 42 -170 42 -46 0 -57 24 -38 79 l17 46 -21 -29
c-20 -26 -22 -27 -29 -10 -10 25 -11 96 -1 110 4 6 22 21 40 32 37 22 29 38
-11 23 -25 -10 -25 -9 -21 31 5 51 34 131 75 203 17 31 30 58 27 60 -2 2 -30
-44 -63 -103z"/>
<path d="M1305 630 c-28 -5 -30 -9 -33 -51 -5 -76 7 -94 72 -105 l56 -11 0 88
0 87 -32 -1 c-18 -1 -46 -4 -63 -7z"/>
<path d="M1270 443 c1 -10 7 -36 15 -58 8 -22 15 -59 15 -82 0 -23 4 -44 9
-47 8 -5 5 138 -5 182 -5 26 -34 30 -34 5z"/>
<path d="M1078 392 c-47 -26 -96 -56 -107 -66 -24 -22 -31 -77 -7 -57 8 6 19
25 26 42 13 30 22 36 133 93 54 27 67 36 50 36 -5 0 -47 -22 -95 -48z"/>
<path d="M447 413 c-4 -3 -7 -13 -7 -22 1 -13 3 -13 11 2 11 19 8 33 -4 20z"/>
<path d="M271 366 c-17 -20 -10 -29 19 -24 19 3 19 5 8 21 -13 17 -15 17 -27
3z"/>
<path d="M192 307 c-6 -6 -13 -24 -17 -40 l-7 -27 60 0 c69 0 92 6 92 26 0 8
-1 14 -3 14 -1 0 -27 9 -57 20 -65 24 -55 23 -68 7z"/>
<path d="M420 259 c0 -5 5 -7 10 -4 6 3 10 8 10 11 0 2 -4 4 -10 4 -5 0 -10
-5 -10 -11z"/>
<path d="M120 180 c0 -11 14 -11 50 0 22 7 21 8 -12 9 -21 1 -38 -3 -38 -9z"/>
<path d="M48 134 c-4 -3 -14 -7 -25 -8 -15 -2 -18 -12 -18 -62 l0 -59 70 -3
c39 -1 65 1 58 5 -12 8 -16 26 -14 57 1 18 2 18 14 4 6 -9 31 -28 54 -42 50
-30 132 -36 153 -11 8 10 31 15 66 15 30 0 54 5 54 10 0 11 -21 13 -130 10
-65 -1 -78 1 -94 19 -11 12 -24 21 -30 21 -6 0 -3 -5 7 -11 17 -10 24 -39 8
-39 -5 0 -14 7 -21 15 -7 8 -18 15 -24 15 -6 0 -31 16 -55 35 -42 34 -61 41
-73 29z"/>
<path d="M1166 37 c3 -10 9 -15 12 -12 3 3 0 11 -7 18 -10 9 -11 8 -5 -6z"/>
</g>
</svg>
